<?xml version="1.0" standalone="no"?>
<!DOCTYPE svg PUBLIC "-//W3C//DTD SVG 20010904//EN"
 "http://www.w3.org/TR/2001/REC-SVG-20010904/DTD/svg10.dtd">
<svg version="1.0" xmlns="http://www.w3.org/2000/svg"
 width="384.000000pt" height="384.000000pt" viewBox="0 0 384.000000 384.000000"
 preserveAspectRatio="xMidYMid meet">
<metadata>
Created by potrace 1.14, written by Peter Selinger 2001-2017
</metadata>
<g transform="translate(0.000000,384.000000) scale(0.100000,-0.100000)"
fill="#000000" stroke="none">
<path d="M1671 3824 c-633 -84 -1183 -477 -1469 -1049 -58 -117 -134 -322
-148 -402 -3 -15 -9 -47 -15 -71 -28 -128 -37 -238 -34 -422 2 -96 6 -184 8
-195 2 -11 8 -42 11 -68 10 -65 12 -77 31 -150 24 -96 57 -201 67 -211 4 -6 8
-16 8 -23 0 -8 14 -44 31 -81 18 -37 39 -83 48 -102 29 -63 114 -199 180 -288
115 -154 373 -393 500 -463 20 -11 50 -28 66 -39 91 -58 295 -145 432 -184 86
-25 111 -31 183 -42 19 -3 64 -10 100 -16 83 -13 367 -18 445 -7 33 4 83 11
110 14 28 4 66 10 85 15 19 5 46 11 60 14 168 33 435 148 600 259 218 147 411
338 547 542 136 205 258 504 290 710 2 17 6 41 9 55 19 100 26 369 12 505 -22
220 -79 414 -184 631 -164 340 -395 594 -739 813 -129 82 -391 187 -555 221
-186 40 -179 39 -395 43 -117 3 -216 -1 -284 -9z"/>
</g>
</svg>
